<svg width="22" height="22" viewBox="0 0 22 22" fill="none" xmlns="http://www.w3.org/2000/svg">
<path d="M1 6C0.734784 6 0.48043 5.89464 0.292893 5.70711C0.105357 5.51957 0 5.26522 0 5V4C0 2.93913 0.421427 1.92172 1.17157 1.17157C1.92172 0.421427 2.93913 0 4 0H5C5.26522 0 5.51957 0.105357 5.70711 0.292893C5.89464 0.48043 6 0.734784 6 1C6 1.26522 5.89464 1.51957 5.70711 1.70711C5.51957 1.89464 5.26522 2 5 2H4C3.46957 2 2.96086 2.21071 2.58579 2.58579C2.21071 2.96086 2 3.46957 2 4V5C2 5.26522 1.89464 5.51957 1.70711 5.70711C1.51957 5.89464 1.26522 6 1 6Z" fill="white"/>
<path d="M21 6C20.7348 6 20.4804 5.89464 20.2929 5.70711C20.1054 5.51957 20 5.26522 20 5V4C20 3.46957 19.7893 2.96086 19.4142 2.58579C19.0391 2.21071 18.5304 2 18 2H17C16.7348 2 16.4804 1.89464 16.2929 1.70711C16.1054 1.51957 16 1.26522 16 1C16 0.734784 16.1054 0.48043 16.2929 0.292893C16.4804 0.105357 16.7348 0 17 0H18C19.0609 0 20.0783 0.421427 20.8284 1.17157C21.5786 1.92172 22 2.93913 22 4V5C22 5.26522 21.8946 5.51957 21.7071 5.70711C21.5196 5.89464 21.2652 6 21 6Z" fill="white"/>
<path d="M5 22H4C2.93913 22 1.92172 21.5786 1.17157 20.8284C0.421427 20.0783 0 19.0609 0 18V17C0 16.7348 0.105357 16.4804 0.292893 16.2929C0.48043 16.1054 0.734784 16 1 16C1.26522 16 1.51957 16.1054 1.70711 16.2929C1.89464 16.4804 2 16.7348 2 17V18C2 18.5304 2.21071 19.0391 2.58579 19.4142C2.96086 19.7893 3.46957 20 4 20H5C5.26522 20 5.51957 20.1054 5.70711 20.2929C5.89464 20.4804 6 20.7348 6 21C6 21.2652 5.89464 21.5196 5.70711 21.7071C5.51957 21.8946 5.26522 22 5 22Z" fill="white"/>
<path d="M18 22H17C16.7348 22 16.4804 21.8946 16.2929 21.7071C16.1054 21.5196 16 21.2652 16 21C16 20.7348 16.1054 20.4804 16.2929 20.2929C16.4804 20.1054 16.7348 20 17 20H18C18.5304 20 19.0391 19.7893 19.4142 19.4142C19.7893 19.0391 20 18.5304 20 18V17C20 16.7348 20.1054 16.4804 20.2929 16.2929C20.4804 16.1054 20.7348 16 21 16C21.2652 16 21.5196 16.1054 21.7071 16.2929C21.8946 16.4804 22 16.7348 22 17V18C22 19.0609 21.5786 20.0783 20.8284 20.8284C20.0783 21.5786 19.0609 22 18 22Z" fill="white"/>
<path d="M11 12.12L5.08002 15.12L10.68 17C10.8876 17.0701 11.1124 17.0701 11.32 17L16.92 15.13L11 12.12Z" fill="white"/>
<path d="M12 10.38L18 13.38V7C17.9994 6.81534 17.9478 6.63443 17.8507 6.47734C17.7536 6.32025 17.6149 6.1931 17.45 6.11L12 3.38V10.38Z" fill="white"/>
<path d="M10 10.38V3.38L4.55 6.11C4.38509 6.1931 4.2464 6.32025 4.14932 6.47734C4.05224 6.63443 4.00056 6.81534 4 7V13.38L10 10.38Z" fill="white"/>
</svg>
