<svg width="33" height="26" viewBox="0 0 33 26" fill="none" xmlns="http://www.w3.org/2000/svg">
<path d="M23.0288 26C21.2643 26 18.7708 25.0818 16.5 20.9432C14.2307 25.0818 11.7343 26 9.97116 26C7.22743 26 4.97835 23.8056 4.04834 21.7712C3.33674 20.2083 3.23405 18.7255 3.74606 17.3634C4.13657 16.3229 4.86843 15.3829 5.93294 14.552C-0.00144672 14.0485 3.4343e-10 8.14037 3.4343e-10 6.14239C3.4343e-10 4.30447 0 0 3.52332 0C4.19298 0 4.95521 0.154251 5.85195 0.472939C9.51701 1.77243 14.3999 6.42469 16.5 10.3886C18.6001 6.42324 23.483 1.77243 27.1466 0.472939C28.0448 0.155706 28.8041 0 29.4752 0C33 0 33 4.30447 33 6.14239C33 8.70062 32.6095 10.5269 31.7749 11.889C30.7972 13.4795 29.2134 14.3744 27.0656 14.5549C28.1287 15.3829 28.862 16.3229 29.2539 17.3649C29.766 18.7284 29.6633 20.2112 28.9517 21.7741C28.0217 23.8056 25.7726 26 23.0288 26Z" fill="url(#paint0_linear_2244_43)"/>
<defs>
<linearGradient id="paint0_linear_2244_43" x1="0.973603" y1="5.17217" x2="35.9227" y2="6.39149" gradientUnits="userSpaceOnUse">
<stop offset="0.0729167" stop-color="#E3A455"/>
<stop offset="0.244792" stop-color="#F6DBA6"/>
<stop offset="0.434957" stop-color="#FFEBC4"/>
<stop offset="0.561926" stop-color="#F0BE79"/>
<stop offset="0.627652" stop-color="#D17941"/>
<stop offset="0.675319" stop-color="#BA7F3B"/>
<stop offset="0.770409" stop-color="#EEBC70"/>
</linearGradient>
</defs>
</svg>
