<svg width="74" height="88" viewBox="0 0 74 88" fill="none" xmlns="http://www.w3.org/2000/svg">
<path d="M50.793 44C50.793 49.5781 47.4297 54.605 42.2774 56.742C37.1251 58.8748 31.1914 57.6951 27.2464 53.7537C23.305 49.8084 22.1253 43.8748 24.2581 38.7227C26.3948 33.5704 31.4222 30.2071 37.0001 30.2071C44.6134 30.2188 50.781 36.3867 50.793 44ZM11.688 47.7617C13.9419 49.4453 16.5747 50.5508 19.356 50.9883C17.9224 47.4492 17.6138 43.5547 18.4693 39.8323C15.0904 35.4261 13.4146 29.9495 13.7505 24.4063C13.9809 21.2618 14.8013 18.1875 16.1685 15.3438C11.356 16.1094 6.65675 17.4727 2.17645 19.3946L0.363953 20.1446L0.594422 22.1251C1.96942 34.6251 5.75017 43.2697 11.688 47.7617ZM29.208 26.6877C30.9971 20.7736 35.0049 15.7817 40.388 12.7497C42.8255 11.4528 45.4661 10.57 48.2005 10.1442C45.306 6.89029 42.0755 3.94889 38.5638 1.37469L37.0013 0.249695L35.4388 1.37469C25.0208 9.21849 19.4388 17.0937 18.9508 24.7697C18.7437 27.9533 19.4195 31.1291 20.9078 33.9494C22.9039 30.7658 25.79 28.2424 29.208 26.6877ZM35.458 25.0744C35.9463 25.0744 36.501 25.0002 36.9463 25.0002H36.9502C42.4541 25.0002 47.6882 27.3986 51.2822 31.5744H51.583C56.5674 31.5275 61.4346 33.1056 65.438 36.0744C66.7153 37.0353 67.8911 38.1252 68.9497 39.3244C71.4145 33.8869 72.938 28.0704 73.4575 22.1254L73.6762 20.1879L71.8637 19.4379C59.5397 14.3559 49.8017 13.6684 42.9257 17.3559C39.7226 19.1098 37.1327 21.8012 35.5116 25.0747L35.458 25.0744ZM44.7392 61.3124C42.9736 67.2226 38.9853 72.2144 33.6142 75.2504C31.1767 76.5473 28.5361 77.4301 25.8017 77.8559C28.6962 81.1176 31.9228 84.0629 35.4384 86.645L37.0009 87.8012L38.5634 86.6254C48.9814 78.7816 54.5634 70.9064 55.0514 63.2304C55.2584 60.0468 54.5826 56.871 53.0944 54.0507C51.0983 57.2343 48.2116 59.7577 44.7936 61.3124H44.7392ZM38.4892 62.9257C38.0009 62.9257 37.4462 62.9999 37.0009 62.9999C31.4931 62.9999 26.2629 60.6015 22.6689 56.4257H22.4189C17.4345 56.4726 12.5673 54.8945 8.56387 51.9257C7.28657 50.9648 6.11077 49.8749 5.05217 48.6757C2.60687 54.1171 1.09907 59.9337 0.595172 65.8747L0.376422 67.8239L2.18892 68.5739C9.30222 71.5114 15.5519 72.9801 20.9389 72.9801C24.4975 73.0582 28.017 72.2457 31.1769 70.6129C34.3371 68.8512 36.8876 66.1718 38.4892 62.9257ZM62.3132 40.2377C60.0749 38.5736 57.4655 37.4721 54.7077 37.0307C55.5749 39.2534 56.0124 41.6166 56.0007 43.9995C56.0007 45.4018 55.8444 46.8003 55.5319 48.1675C58.9108 52.5737 60.5866 58.0503 60.2507 63.5935C60.0163 66.7341 59.196 69.8044 57.8327 72.6443C62.6452 71.8826 67.3405 70.5271 71.8127 68.6052L73.6252 67.8552L73.4573 65.8747C72.0315 53.3747 68.302 44.7297 62.3132 40.2377Z" fill="white"/>
</svg>
