<svg width="23" height="60" viewBox="0 0 23 60" fill="none" xmlns="http://www.w3.org/2000/svg">
<path d="M16.429 58.0421C15.231 59.1601 13.672 59.6521 12.043 59.4441C11.213 59.3571 10.43 59.048 9.71 58.562C8.982 58.084 8.304 57.4411 7.741 56.6641C9.101 55.7501 10.774 55.5281 12.309 55.8011C13.084 55.9351 13.803 56.2191 14.495 56.5941C15.215 56.9471 15.87 57.4251 16.429 58.0421Z" fill="white"/>
<path d="M18.103 56.491C19.301 55.373 19.98 53.907 20.186 52.541C20.269 51.87 20.291 51.171 20.196 50.513C20.093 49.861 19.857 49.261 19.462 48.733C18.102 49.647 17.206 50.926 16.928 52.363C16.793 53.074 16.785 53.839 16.977 54.551C17.197 55.24 17.576 55.907 18.103 56.491Z" fill="white"/>
<path d="M11.85 52.064C10.462 52.934 8.84298 53.117 7.28998 52.594C5.68698 52.111 4.41898 50.779 3.59698 49.038C5.10698 48.402 6.78798 48.507 8.23598 49.073C8.97998 49.349 9.58898 49.786 10.245 50.262C10.88 50.749 11.426 51.346 11.85 52.064Z" fill="white"/>
<path d="M13.789 50.858C15.177 49.988 16.129 48.675 16.602 47.371C17.014 46.086 17.205 44.676 16.622 43.501C15.112 44.137 13.984 45.222 13.429 46.582C13.169 47.249 12.972 48.02 13.072 48.731C13.151 49.451 13.39 50.182 13.789 50.858Z" fill="white"/>
<path d="M8.50101 45.315C6.97201 45.902 5.35001 45.771 3.93101 44.959C2.45801 44.174 1.44601 42.635 0.988007 40.767C2.59201 40.431 4.22001 40.855 5.53001 41.687C6.78801 42.546 7.95501 43.746 8.50101 45.315Z" fill="white"/>
<path d="M10.635 44.504C12.164 43.917 13.352 42.809 14.071 41.618C14.73 40.433 15.163 39.09 14.831 37.819C13.227 38.155 11.911 39.006 11.104 40.236C10.239 41.471 10.119 43.015 10.635 44.504Z" fill="white"/>
<path d="M6.508 38.05C4.895 38.335 3.329 37.897 2.092 36.831C0.8 35.781 0.091 34.08 0 32.16C1.639 32.134 3.156 32.859 4.283 33.924C5.355 35.006 6.277 36.405 6.508 38.05Z" fill="white"/>
<path d="M8.75799 37.66C10.371 37.375 11.749 36.514 12.683 35.48C13.559 34.44 14.23 33.203 14.15 31.89C12.511 31.916 11.057 32.502 10.031 33.557C8.94699 34.606 8.53999 36.099 8.75799 37.66Z" fill="white"/>
<path d="M5.93401 30.539C4.29601 30.513 2.84201 29.786 1.83001 28.506C0.760012 27.231 0.384012 25.426 0.661012 23.523C2.27501 23.808 3.62701 24.807 4.53201 26.067C5.37801 27.332 6.02001 28.88 5.93401 30.539Z" fill="white"/>
<path d="M8.216 30.583C9.854 30.609 11.371 30.025 12.484 29.186C13.541 28.33 14.433 27.244 14.605 25.94C12.991 25.655 11.452 25.955 10.244 26.796C8.981 27.62 8.301 29.009 8.216 30.583Z" fill="white"/>
<path d="M6.79301 23.056C5.18901 22.72 3.90101 21.731 3.15101 20.28C2.34401 18.825 2.31301 16.977 2.95401 15.161C4.48401 15.749 5.61901 16.988 6.26601 18.396C6.85301 19.799 7.19801 21.444 6.79301 23.056Z" fill="white"/>
<path d="M9.026 23.531C10.63 23.867 12.23 23.581 13.483 22.97C14.684 22.331 15.761 21.435 16.183 20.192C14.653 19.604 13.084 19.604 11.737 20.199C10.336 20.766 9.412 22.004 9.026 23.531Z" fill="white"/>
<path d="M9.05899 15.87C7.54899 15.234 6.47499 14.017 6.01899 12.45C5.80899 11.679 5.67299 10.786 5.84499 9.94199C5.99599 9.08799 6.31799 8.21299 6.80999 7.38699C8.19899 8.25699 9.07299 9.68999 9.43399 11.194C9.73399 12.68 9.77899 14.373 9.05899 15.87Z" fill="white"/>
<path d="M11.16 16.763C12.67 17.399 14.297 17.425 15.646 17.067C16.34 16.895 16.888 16.579 17.472 16.237C18.035 15.883 18.498 15.431 18.83 14.862C17.441 13.992 15.899 13.689 14.459 14.012C12.967 14.296 11.845 15.345 11.16 16.763Z" fill="white"/>
<path d="M12.656 9.248C11.296 8.334 10.478 6.937 10.336 5.317C10.269 4.515 10.344 3.641 10.631 2.813C10.945 2.01 11.432 1.219 12.076 0.509003C13.274 1.627 13.857 3.194 13.917 4.732C13.927 5.488 13.864 6.292 13.677 7.07C13.483 7.841 13.149 8.576 12.656 9.248Z" fill="white"/>
<path d="M14.547 10.527C15.907 11.441 17.502 11.781 18.901 11.691C19.608 11.648 20.243 11.473 20.84 11.213C21.467 10.976 22.014 10.622 22.456 10.13C21.258 9.01201 19.795 8.41901 18.312 8.45501C17.554 8.45601 16.858 8.66101 16.229 9.02601C15.593 9.38601 15.013 9.89501 14.547 10.527Z" fill="white"/>
</svg>
