<svg width="23" height="60" viewBox="0 0 23 60" fill="none" xmlns="http://www.w3.org/2000/svg">
<path d="M4.89702 56.491C3.69902 55.373 3.02002 53.907 2.81402 52.541C2.73102 51.87 2.70901 51.171 2.80401 50.513C2.90701 49.861 3.14301 49.261 3.53801 48.733C4.89801 49.647 5.79401 50.926 6.07201 52.363C6.20701 53.074 6.21501 53.839 6.02302 54.551C5.80301 55.24 5.42402 55.907 4.89702 56.491Z" fill="white"/>
<path d="M6.57101 58.0421C7.76901 59.1601 9.32802 59.6521 10.957 59.4441C11.787 59.3571 12.57 59.048 13.29 58.562C14.018 58.084 14.696 57.4411 15.259 56.6641C13.899 55.7501 12.226 55.5281 10.691 55.8011C9.91602 55.9351 9.19801 56.2191 8.50501 56.5941C7.78501 56.9471 7.13001 57.4251 6.57101 58.0421Z" fill="white"/>
<path d="M9.21101 50.858C7.82301 49.988 6.87102 48.675 6.39802 47.371C5.98602 46.086 5.79501 44.676 6.37801 43.501C7.88801 44.137 9.01601 45.222 9.57101 46.582C9.83101 47.249 10.028 48.02 9.92801 48.731C9.84901 49.451 9.61001 50.182 9.21101 50.858Z" fill="white"/>
<path d="M11.15 52.064C12.538 52.934 14.157 53.117 15.71 52.594C17.313 52.111 18.581 50.779 19.403 49.038C17.893 48.402 16.212 48.507 14.764 49.073C14.02 49.349 13.411 49.786 12.755 50.262C12.12 50.749 11.574 51.346 11.15 52.064Z" fill="white"/>
<path d="M12.365 44.504C10.835 43.917 9.64801 42.809 8.92901 41.618C8.27001 40.433 7.83701 39.09 8.16901 37.819C9.77301 38.155 11.089 39.006 11.896 40.236C12.761 41.471 12.881 43.015 12.365 44.504Z" fill="white"/>
<path d="M14.499 45.315C16.028 45.902 17.65 45.771 19.069 44.959C20.542 44.174 21.554 42.635 22.012 40.767C20.408 40.431 18.78 40.855 17.47 41.687C16.212 42.546 15.045 43.746 14.499 45.315Z" fill="white"/>
<path d="M14.242 37.66C12.629 37.375 11.251 36.514 10.317 35.48C9.44102 34.44 8.77001 33.203 8.85001 31.89C10.489 31.916 11.943 32.502 12.969 33.557C14.053 34.606 14.46 36.099 14.242 37.66Z" fill="white"/>
<path d="M16.492 38.05C18.105 38.335 19.671 37.897 20.908 36.831C22.2 35.781 22.909 34.08 23 32.16C21.361 32.134 19.844 32.859 18.717 33.924C17.645 35.006 16.723 36.405 16.492 38.05Z" fill="white"/>
<path d="M14.784 30.583C13.146 30.609 11.629 30.025 10.516 29.186C9.45902 28.33 8.56702 27.244 8.39502 25.94C10.009 25.655 11.548 25.955 12.756 26.796C14.019 27.62 14.699 29.009 14.784 30.583Z" fill="white"/>
<path d="M17.066 30.539C18.704 30.513 20.158 29.786 21.17 28.506C22.24 27.231 22.616 25.426 22.339 23.523C20.725 23.808 19.373 24.807 18.468 26.067C17.622 27.332 16.98 28.88 17.066 30.539Z" fill="white"/>
<path d="M13.974 23.531C12.37 23.867 10.77 23.581 9.51701 22.97C8.31601 22.331 7.23902 21.435 6.81702 20.192C8.34702 19.604 9.91602 19.604 11.263 20.199C12.664 20.766 13.588 22.004 13.974 23.531Z" fill="white"/>
<path d="M16.207 23.056C17.811 22.72 19.099 21.731 19.849 20.28C20.656 18.825 20.687 16.977 20.046 15.161C18.516 15.749 17.381 16.988 16.734 18.396C16.147 19.799 15.802 21.444 16.207 23.056Z" fill="white"/>
<path d="M11.84 16.763C10.33 17.399 8.70301 17.425 7.35401 17.067C6.66001 16.895 6.11202 16.579 5.52802 16.237C4.96502 15.883 4.50201 15.431 4.17001 14.862C5.55901 13.992 7.10102 13.689 8.54102 14.012C10.033 14.296 11.155 15.345 11.84 16.763Z" fill="white"/>
<path d="M13.941 15.87C15.451 15.234 16.525 14.017 16.981 12.45C17.191 11.679 17.327 10.786 17.155 9.94199C17.004 9.08799 16.682 8.21299 16.19 7.38699C14.801 8.25699 13.927 9.68999 13.566 11.194C13.266 12.68 13.221 14.373 13.941 15.87Z" fill="white"/>
<path d="M8.45301 10.527C7.09301 11.441 5.49801 11.781 4.09901 11.691C3.39201 11.648 2.75701 11.473 2.16001 11.213C1.53301 10.976 0.986006 10.622 0.544006 10.13C1.74201 9.01201 3.20501 8.41901 4.68801 8.45501C5.44601 8.45601 6.14201 8.66101 6.77101 9.02601C7.40701 9.38601 7.98701 9.89501 8.45301 10.527Z" fill="white"/>
<path d="M10.344 9.248C11.704 8.334 12.522 6.937 12.664 5.317C12.731 4.515 12.656 3.641 12.369 2.813C12.055 2.01 11.568 1.219 10.924 0.509003C9.72602 1.627 9.14301 3.194 9.08301 4.732C9.07301 5.488 9.13601 6.292 9.32301 7.07C9.51701 7.841 9.85101 8.576 10.344 9.248Z" fill="white"/>
</svg>
