<svg width="256" height="245" viewBox="0 0 256 245" fill="none" xmlns="http://www.w3.org/2000/svg">
<path d="M74.08 232.72C75.6267 235.394 77.6851 237.737 80.1378 239.615C82.5904 241.493 85.3892 242.87 88.374 243.666C91.3589 244.462 94.4713 244.661 97.5334 244.254C100.596 243.846 103.547 242.839 106.22 241.29L160 210.14C162.979 211.46 166.202 212.141 169.46 212.14C175.675 212.121 181.632 209.652 186.04 205.27C188.816 203.548 191.201 201.264 193.043 198.566C194.884 195.867 196.14 192.813 196.73 189.6L197.67 184.53L252.67 71.74C255.406 66.1358 255.804 59.6745 253.777 53.7768C251.75 47.8791 247.463 43.028 241.86 40.29L164.17 2.39002C159.078 -0.0944259 153.259 -0.653008 147.788 0.817372C142.316 2.28775 137.561 5.68783 134.4 10.39L118.4 7.44002C113.265 6.49357 107.961 7.28421 103.326 9.68715C98.6899 12.0901 94.9865 15.9684 92.8 20.71L84.21 20.87C79.0122 20.9818 73.9967 22.8068 69.9425 26.0617C65.8884 29.3166 63.0225 33.8191 61.79 38.87L47.58 42.6C42.2089 44.0067 37.5108 47.2727 34.3211 51.8173C31.1314 56.362 29.657 61.8906 30.16 67.42L11.73 78.1C6.33823 81.2292 2.40786 86.3694 0.801223 92.3929C-0.805413 98.4164 0.0428944 104.831 3.16003 110.23L74.08 232.72ZM136 26.81H138.08C141.598 26.9886 144.969 28.2798 147.706 30.4976C150.444 32.7154 152.406 35.7451 153.31 39.15L184.07 156.15L118.72 43.32C116.311 39.1446 112.667 35.8186 108.29 33.8L133 27.3C133.983 27.0465 134.987 26.8825 136 26.81ZM202.25 29.87C206.574 30.6698 210.405 33.1518 212.902 36.7716C215.399 40.3914 216.358 44.8537 215.57 49.18L196.64 151.85L194.64 42.32C194.541 36.8426 192.524 31.5735 188.94 27.43L202.25 29.87ZM187.7 42.45L189.7 150.45L160 37.36C158.906 33.2199 156.695 29.4598 153.61 26.49L170.85 26.17C175.236 26.1215 179.463 27.8031 182.618 30.8505C185.772 33.8979 187.598 38.0655 187.7 42.45ZM247.27 56.07C247.987 58.1276 248.289 60.3073 248.156 62.4823C248.024 64.6573 247.461 66.7844 246.5 68.74L202.34 159.22L222.34 50.43C223.107 46.2399 222.709 41.9196 221.19 37.94L238.86 46.56C240.822 47.5086 242.576 48.8378 244.02 50.4705C245.464 52.1031 246.569 54.0065 247.27 56.07ZM148.46 7.84002C150.519 7.12709 152.698 6.82896 154.873 6.96283C157.048 7.09671 159.174 7.65994 161.13 8.62002L183 19.29L142.17 11.78C143.939 10.0038 146.09 8.65606 148.46 7.84002ZM117.13 14.23L146.81 19.69L138.15 19.84C137.3 19.8118 136.449 19.8285 135.6 19.89L100.91 20.53C102.763 18.0783 105.261 16.1906 108.126 15.078C110.99 13.9653 114.108 13.6717 117.13 14.23ZM84.33 27.77L105.46 27.38L69.91 36.73C71.2872 34.079 73.3531 31.848 75.8905 30.2713C78.428 28.6947 81.3433 27.8306 84.33 27.77ZM49.33 49.3L71.52 43.46L37.1 63.4C37.4921 60.0938 38.8687 56.9816 41.0513 54.4674C43.2339 51.9531 46.1217 50.1528 49.34 49.3H49.33ZM15.2 84.09L90.06 40.75C92.5737 39.2851 95.4306 38.5122 98.34 38.51C99.7921 38.5118 101.238 38.7034 102.64 39.08C104.746 39.6352 106.722 40.6025 108.452 41.9258C110.182 43.2492 111.633 44.9025 112.72 46.79L183.64 169.28C184.735 171.162 185.448 173.242 185.739 175.4C186.03 177.558 185.893 179.753 185.336 181.858C184.779 183.963 183.812 185.938 182.492 187.669C181.171 189.401 179.523 190.856 177.64 191.95L102.78 235.29C98.9785 237.495 94.4574 238.102 90.209 236.977C85.9605 235.852 82.3321 233.088 80.12 229.29L9.16003 106.76C6.95764 102.952 6.3567 98.4258 7.48919 94.1752C8.62169 89.9246 11.395 86.2973 15.2 84.09Z" fill="white"/>
<path d="M110.681 84.9314C84.994 103.262 128.773 127.383 104.855 141.873L86.6655 110.368C86.1182 109.42 86.1963 108.208 86.8609 107.338L91.0982 101.877C91.5553 101.321 91.5831 100.527 91.2463 99.944L90.5305 98.7042C90.0252 97.8291 88.9899 97.5517 88.1148 98.0569L67.2573 110.099C66.3821 110.604 66.1047 111.64 66.61 112.515L67.3258 113.755C67.6626 114.338 68.3641 114.711 69.0738 114.593L75.9217 113.654C77.0073 113.513 78.096 114.051 78.6434 114.999L96.8329 146.504C72.3259 159.973 73.3254 109.999 44.6073 123.079C43.6901 123.511 43.3819 124.661 43.845 125.464L45.8661 128.964C46.2871 129.693 47.1345 129.982 47.948 129.707C65.5757 124.197 66.1306 157.326 83.1525 161.209C88.6629 162.501 95.2724 161.991 103.359 157.808L108.496 166.706C109.043 167.654 108.965 168.866 108.301 169.736L104.063 175.196C103.606 175.752 103.578 176.546 103.915 177.129L104.631 178.369C105.136 179.244 106.172 179.522 107.047 179.016L127.904 166.974C128.779 166.469 129.057 165.434 128.552 164.559L127.836 163.319C127.499 162.735 126.797 162.362 126.088 162.481L119.24 163.42C118.154 163.56 117.066 163.022 116.518 162.074L111.423 153.25C119.089 148.338 122.836 142.869 124.472 137.451C129.62 120.768 101.207 103.723 114.793 91.2115C115.365 90.6867 115.611 89.7664 115.19 89.0371L113.169 85.5365C112.664 84.6614 111.514 84.3532 110.681 84.9314Z" fill="white"/>
</svg>
