<svg width="27" height="27" viewBox="0 0 27 27" fill="none" xmlns="http://www.w3.org/2000/svg">
<path d="M19.3483 0.264725L0.319092 0.284531C0.611742 3.17755 2.99407 5.40975 5.94344 5.42574C8.4384 5.42574 10.9711 5.36134 13.4735 5.36134C13.5664 5.24397 13.6639 5.13037 13.7654 5.02065C13.5598 4.81511 13.3542 4.60956 13.1487 4.40399C12.9369 4.19219 13.2398 3.88178 13.4664 4.08623C13.672 4.2918 13.8776 4.49747 14.0831 4.70308C15.0588 3.80028 16.3469 3.23072 17.7661 3.17613V2.30513C17.7641 2.18128 17.8635 2.07954 17.9874 2.07764C18.1138 2.07564 18.2173 2.17865 18.2152 2.30513V3.17613C19.6344 3.23073 20.9226 3.80033 21.8982 4.70322C22.1038 4.49756 22.3093 4.29184 22.5149 4.08623C22.7338 3.8674 23.0477 4.18845 22.8322 4.40399C22.6266 4.60956 22.4212 4.81514 22.2156 5.02065C23.1187 5.99642 23.6882 7.28489 23.7427 8.70442H24.6137C24.7412 8.69942 24.8474 8.80112 24.8474 8.92876C24.8474 9.05635 24.7412 9.15829 24.6137 9.15308H23.7427C23.6881 10.5725 23.1186 11.861 22.2156 12.8367C22.4212 13.0423 22.6266 13.248 22.8322 13.4536C23.0582 13.6651 22.7263 13.997 22.5149 13.771C22.3093 13.5654 22.1038 13.3598 21.8983 13.1542C21.1639 13.834 20.2523 14.3248 19.2409 14.5493C20.1671 15.3738 21.5925 16.2566 22.8454 16.8454C27.0186 12.0531 27.2584 5.80762 23.3807 1.92973C22.3508 0.899803 20.9285 0.264725 19.3483 0.264725ZM17.7661 3.62515C16.4686 3.67905 15.2922 4.19741 14.3987 5.01872C14.569 5.18906 14.7392 5.3594 14.9094 5.52972C15.4297 5.04531 16.2128 4.58416 17.1057 4.42848C17.3853 4.41708 17.4297 4.82485 17.1543 4.87387C15.5668 5.1846 14.2464 6.50516 13.9358 8.09218C13.8824 8.39203 13.4316 8.30391 13.4951 8.00607C13.6541 7.19341 14.045 6.44901 14.592 5.84697C14.4218 5.67672 14.2514 5.50653 14.0811 5.3363C13.2598 6.22999 12.7414 7.40643 12.6876 8.70418H14.6791C14.9793 8.70418 14.9793 9.15411 14.6791 9.15326H12.6876C12.7415 10.451 13.2598 11.6276 14.0811 12.5212C14.2514 12.351 14.4218 12.1807 14.592 12.0105C14.0451 11.4085 13.6541 10.6641 13.4951 9.85136C13.4658 9.71248 13.5711 9.58158 13.7129 9.58052C13.8223 9.57852 13.9164 9.65762 13.9358 9.76523C14.2465 11.3528 15.5674 12.673 17.1543 12.9836C17.4531 13.0377 17.3652 13.4869 17.0681 13.4245C16.2556 13.2654 15.5114 12.8746 14.9094 12.3278C14.7391 12.4981 14.569 12.6684 14.3987 12.8387C15.2924 13.6601 16.4689 14.1783 17.7666 14.2321V12.2403C17.7646 12.1166 17.8637 12.015 17.9874 12.0129C18.1139 12.0109 18.2174 12.1138 18.2152 12.2403V14.2321C19.5128 14.1782 20.6892 13.66 21.5828 12.8387C21.4125 12.6683 21.2422 12.498 21.0719 12.3277C20.4701 12.8745 19.7261 13.2654 18.9134 13.4245C18.6163 13.4872 18.528 13.0381 18.8267 12.9836C20.4142 12.6729 21.7349 11.3522 22.0455 9.76523C22.0645 9.66033 22.1548 9.58327 22.2614 9.58087C22.4059 9.57787 22.5155 9.70995 22.4858 9.85136C22.3268 10.664 21.9361 11.4084 21.3892 12.0104C21.5595 12.1807 21.7298 12.351 21.9001 12.5214C22.7215 11.6277 23.2399 10.451 23.2938 9.15326H21.3022C21.002 9.15326 21.002 8.70334 21.3022 8.70418H23.2938C23.24 7.4063 22.7216 6.22972 21.9002 5.33598C21.7299 5.5063 21.5596 5.67651 21.3892 5.84686C21.936 6.44881 22.3268 7.1931 22.4858 8.00586C22.5577 8.30895 22.0931 8.39983 22.0455 8.09196C21.7348 6.50443 20.4137 5.18429 18.8267 4.87367C18.5569 4.82437 18.5943 4.42659 18.8685 4.42828C19.5497 4.49188 20.5131 5.00327 21.0718 5.52951C21.2421 5.35918 21.4124 5.18887 21.5827 5.01852C20.6892 4.19718 19.5128 3.67882 18.2152 3.62494V5.61696C18.2152 5.91696 17.7661 5.91696 17.7661 5.61696V3.62515ZM13.1501 5.81332L6.14385 5.87381C5.75136 7.23371 5.27428 9.37863 5.27428 10.7748C5.27428 10.8107 5.26627 10.846 5.24937 10.878L2.97696 15.2726C2.92686 15.3734 2.90995 15.5052 2.94635 15.6405C2.98115 15.7703 3.0592 15.8682 3.14809 15.9313L4.93614 16.4725C4.98564 16.4785 5.03154 16.5016 5.06671 16.537C5.12281 16.5906 5.14742 16.6695 5.13152 16.7455V18.0654C5.88532 18.1301 6.65763 17.9655 7.32523 17.6055C7.57025 17.4641 7.81398 17.8418 7.53864 18.0008C6.80577 18.396 5.96345 18.5798 5.13152 18.5158V20.0819C5.13156 20.1196 5.12251 20.1566 5.10411 20.1896C4.84286 20.6667 4.70548 21.3911 4.79585 21.9525C4.84095 22.2332 4.94032 22.4687 5.08501 22.6261C5.22966 22.7834 5.4149 22.8767 5.70451 22.8767H12.833C15.552 22.8767 17.7516 20.6772 17.7516 17.958C17.741 17.6484 18.2109 17.6484 18.2004 17.958C18.2004 20.8551 15.8985 23.22 13.0261 23.322C12.921 24.3052 12.6958 25.2705 12.4439 26.1937L21.3344 26.1867C20.9395 24.7402 20.6105 23.1857 20.6956 21.6388C20.7813 20.0819 21.2856 18.5389 22.5251 17.1909C21.1497 16.5306 19.6233 15.5641 18.6839 14.6445C18.5295 14.6631 18.3731 14.6754 18.2152 14.6815V15.5523C18.2202 15.6797 18.1185 15.7859 17.9909 15.7859C17.8633 15.7859 17.7615 15.6797 17.7666 15.5523V14.6815C16.3471 14.627 15.0588 14.0575 14.083 13.1544C13.8775 13.36 13.672 13.5655 13.4665 13.7711C13.2549 13.9856 12.9345 13.6656 13.1487 13.4537C13.3543 13.2481 13.5598 13.0425 13.7654 12.8369C12.8624 11.8611 12.2929 10.5726 12.2383 9.15318H11.3676C11.0674 9.15318 11.0674 8.70326 11.3676 8.7041H12.2383C12.2792 7.64173 12.6083 6.65275 13.1501 5.81332ZM19.6815 7.54123C19.8861 7.53523 19.9914 7.78377 19.8447 7.92657L17.5209 10.2507C17.4332 10.3386 17.2909 10.3386 17.2032 10.2507L16.1362 9.18401C15.9244 8.97215 16.2421 8.65427 16.454 8.86612L17.3622 9.77425L19.5273 7.60913C19.5679 7.56733 19.6232 7.54293 19.6815 7.54123ZM8.96668 10.2869C9.60298 10.2869 10.2392 10.4781 10.7366 10.8606C10.9856 11.0414 10.7018 11.4105 10.4631 11.2165C9.65398 10.5943 8.27926 10.5943 7.47018 11.2165C7.2329 11.399 6.9591 11.0432 7.1964 10.8606C7.69387 10.4781 8.33038 10.2869 8.96668 10.2869Z" fill="white"/>
</svg>
