<svg width="60" height="62" viewBox="0 0 60 62" fill="none" xmlns="http://www.w3.org/2000/svg">
<path d="M59.68 44.6008C59.68 44.7308 59.68 44.8808 59.68 45.0108C59.68 49.5308 54.77 53.2008 48.68 53.2008C42.59 53.2008 37.68 49.5308 37.68 45.0108C37.68 40.4908 42.58 36.8308 48.68 36.8308C49.9462 36.8271 51.2073 36.9919 52.43 37.3208V21.0008C52.4288 20.3452 52.2781 19.6985 51.9893 19.1099C51.7005 18.5213 51.2813 18.0064 50.7635 17.6043C50.2456 17.2022 49.6429 16.9235 49.0011 16.7895C48.3594 16.6555 47.6955 16.6696 47.06 16.8308L25.06 22.5308C24.1403 22.7718 23.3265 23.3108 22.7457 24.0635C22.1649 24.8162 21.8499 25.7401 21.85 26.6908V53.8108C21.85 58.3308 16.94 62.0008 10.85 62.0008C4.76 62.0008 0 58.3308 0 53.8108C0 49.2908 4.9 45.6308 11 45.6308C12.2589 45.6281 13.5128 45.7895 14.73 46.1108V12.7808C14.7315 11.812 15.0603 10.872 15.6628 10.1133C16.2654 9.3546 17.1066 8.82165 18.05 8.60084L54.41 0.110838C55.0397 -0.0349704 55.6942 -0.0369442 56.3247 0.105063C56.9553 0.247069 57.5457 0.529403 58.0521 0.931067C58.5585 1.33273 58.9679 1.84339 59.2497 2.42507C59.5315 3.00675 59.6786 3.64448 59.68 4.29084V44.6008Z" fill="white"/>
</svg>
