<svg width="70" height="79" viewBox="0 0 70 79" fill="none" xmlns="http://www.w3.org/2000/svg">
<path d="M18.258 23.031C18.258 21.9763 18.383 20.9451 18.6173 19.9451C21.9376 18.7654 26.3126 16.6873 28.7813 15.0467C33.5782 18.6639 43.6093 24.2733 50.3203 26.1407V39.0387C50.3203 40.7184 51.6797 42.0856 53.3672 42.0856C58.4063 42.0856 62.5 37.9997 62.5 32.9528V29.3981C62.5 26.07 60.7188 23.1559 58.0547 21.5622C57.2735 9.8282 47.2187 0.843201 34.4217 0.843201C21.6247 0.843201 11.2027 9.7338 10.4917 21.7262C7.81204 23.3278 6.01514 26.2574 6.01514 29.609V33.0778C6.01514 37.0622 8.55424 40.4528 12.101 41.7184C12.9448 43.5778 14.1322 45.4215 15.7416 47.1012C19.4682 50.984 25.14 53.6637 33.1086 54.07C34.3117 54.1325 35.2961 53.1481 35.2961 51.9372V48.4997C35.2961 47.2888 34.3118 46.32 33.1086 46.2419C26.9836 45.8513 23.4289 43.82 21.3746 41.6794C19.3668 39.5856 18.4684 37.0622 18.2496 34.9294V23.4844V23.3907C18.2574 23.2735 18.2653 23.1485 18.2653 23.0235L18.258 23.031Z" fill="white"/>
<path d="M55.789 51.219C55.2733 50.0315 53.5859 50.0315 53.0702 51.219L49.578 59.219L40.8905 60.0705C39.6014 60.1955 39.078 61.7972 40.0467 62.6565L46.5779 68.4534L44.7029 76.9768C44.4217 78.2424 45.7888 79.2346 46.906 78.5784L54.4294 74.1643L61.9528 78.5784C63.07 79.2346 64.4294 78.2424 64.1559 76.9768L62.2809 68.4534L68.8121 62.6565C69.7809 61.7971 69.2652 60.1955 67.9762 60.0705L59.2887 59.219L55.7965 51.219H55.789Z" fill="white"/>
<path d="M31.742 61.086C31.5936 63.7188 32.5545 66.4454 34.867 68.5001L37.9686 71.2501L37.078 75.297C36.8124 76.5079 36.7889 77.6798 36.9608 78.7814H1.87478C0.882591 78.7814 0.0778809 77.9767 0.0778809 76.9845C0.0778809 67.922 5.63258 59.7035 14.3669 57.2815C14.945 57.1252 15.5231 56.9612 16.1169 56.8049C17.3357 57.4143 23.8514 60.5001 31.742 61.086Z" fill="white"/>
</svg>
