<svg width="409" height="47" viewBox="0 0 409 47" fill="none" xmlns="http://www.w3.org/2000/svg">
<g filter="url(#filter0_d_2776_37)">
<path d="M62.3501 1.16003V44.66H51.9101V4.98803L54.4621 5.16203L36.7721 44.66H25.5781L7.88811 5.27803L10.4401 5.04603V44.66H0.000113651V1.16003H16.8781L33.4081 39.208H29.0001L45.4721 1.16003H62.3501ZM88.5031 45.588C84.5591 45.588 81.0211 44.8534 77.8891 43.384C74.7958 41.9147 72.3598 39.8654 70.5811 37.236C68.8025 34.6067 67.9131 31.5327 67.9131 28.014C67.9131 24.5727 68.7638 21.5567 70.4651 18.966C72.1665 16.3754 74.5058 14.3454 77.4831 12.876C80.4991 11.4067 83.9018 10.672 87.6911 10.672C91.5578 10.672 94.8831 11.5227 97.6671 13.224C100.451 14.9254 102.597 17.3227 104.105 20.416C105.613 23.5094 106.367 27.144 106.367 31.32H76.5551V24.534H100.451L96.5651 26.97C96.4491 25.1527 96.0045 23.6254 95.2311 22.388C94.4965 21.112 93.5105 20.1454 92.2731 19.488C91.0358 18.792 89.5665 18.444 87.8651 18.444C86.0091 18.444 84.4045 18.8114 83.0511 19.546C81.6978 20.2807 80.6345 21.3054 79.8611 22.62C79.1265 23.9347 78.7591 25.462 78.7591 27.202C78.7591 29.406 79.2425 31.2814 80.2091 32.828C81.2145 34.3747 82.6451 35.554 84.5011 36.366C86.3958 37.178 88.6965 37.584 91.4031 37.584C93.8778 37.584 96.3525 37.2554 98.8271 36.598C101.302 35.902 103.525 34.9354 105.497 33.698V40.716C103.254 42.2627 100.683 43.4614 97.7831 44.312C94.9218 45.1627 91.8285 45.588 88.5031 45.588ZM107.865 19.604V14.906L114.709 12.412L119.291 2.78403H125.497V11.6H139.765V19.604H125.497V30.508C125.497 32.9827 125.999 34.7227 127.005 35.728C128.01 36.6947 129.808 37.178 132.399 37.178C134.023 37.178 135.473 37.0427 136.749 36.772C138.025 36.4627 139.223 36.0567 140.345 35.554V43.732C139.185 44.196 137.657 44.6214 135.763 45.008C133.907 45.3947 131.973 45.588 129.963 45.588C126.444 45.588 123.544 45.0274 121.263 43.906C119.02 42.7847 117.357 41.2187 116.275 39.208C115.231 37.1587 114.709 34.7614 114.709 32.016V19.604H107.865ZM174.517 44.66L173.067 32.654L174.633 28.13L173.067 23.664L174.517 11.6H185.711L183.681 28.13L185.711 44.66H174.517ZM177.185 28.13C176.605 31.6487 175.503 34.7227 173.879 37.352C172.255 39.9427 170.205 41.9727 167.731 43.442C165.256 44.8727 162.472 45.588 159.379 45.588C156.131 45.588 153.269 44.8534 150.795 43.384C148.359 41.9147 146.445 39.8847 145.053 37.294C143.661 34.6647 142.965 31.61 142.965 28.13C142.965 24.65 143.661 21.6147 145.053 19.024C146.445 16.3947 148.359 14.3454 150.795 12.876C153.269 11.4067 156.131 10.672 159.379 10.672C162.472 10.672 165.256 11.4067 167.731 12.876C170.205 14.3067 172.255 16.3174 173.879 18.908C175.541 21.4987 176.643 24.5727 177.185 28.13ZM153.869 28.13C153.869 29.9087 154.236 31.494 154.971 32.886C155.705 34.2394 156.711 35.322 157.987 36.134C159.301 36.9074 160.809 37.294 162.511 37.294C164.212 37.294 165.817 36.9074 167.325 36.134C168.871 35.322 170.225 34.2394 171.385 32.886C172.545 31.494 173.415 29.9087 173.995 28.13C173.415 26.3514 172.545 24.7854 171.385 23.432C170.225 22.04 168.871 20.9574 167.325 20.184C165.817 19.372 164.212 18.966 162.511 18.966C160.809 18.966 159.301 19.372 157.987 20.184C156.711 20.9574 155.705 22.04 154.971 23.432C154.236 24.7854 153.869 26.3514 153.869 28.13ZM239.859 26.68C239.434 30.4307 238.138 33.7367 235.973 36.598C233.808 39.4207 230.946 41.6247 227.389 43.21C223.832 44.7954 219.772 45.588 215.209 45.588C210.221 45.588 205.832 44.6407 202.043 42.746C198.292 40.8514 195.373 38.2027 193.285 34.8C191.197 31.3974 190.153 27.434 190.153 22.91C190.153 18.386 191.197 14.4227 193.285 11.02C195.373 7.61737 198.292 4.9687 202.043 3.07403C205.832 1.17937 210.221 0.232032 215.209 0.232032C219.772 0.232032 223.832 1.0247 227.389 2.61003C230.946 4.19537 233.808 6.39937 235.973 9.22203C238.138 12.0447 239.434 15.3507 239.859 19.14H228.839C228.452 17.168 227.66 15.486 226.461 14.094C225.301 12.702 223.754 11.6387 221.821 10.904C219.926 10.1307 217.722 9.74403 215.209 9.74403C212.309 9.74403 209.815 10.2854 207.727 11.368C205.639 12.412 204.034 13.92 202.913 15.892C201.792 17.864 201.231 20.2034 201.231 22.91C201.231 25.6167 201.792 27.956 202.913 29.928C204.034 31.9 205.639 33.4274 207.727 34.51C209.815 35.554 212.309 36.076 215.209 36.076C217.722 36.076 219.926 35.7087 221.821 34.974C223.754 34.2394 225.301 33.176 226.461 31.784C227.66 30.392 228.452 28.6907 228.839 26.68H239.859ZM275.167 44.66L273.717 32.654L275.283 28.13L273.717 23.664L275.167 11.6H286.361L284.331 28.13L286.361 44.66H275.167ZM277.835 28.13C277.255 31.6487 276.153 34.7227 274.529 37.352C272.905 39.9427 270.856 41.9727 268.381 43.442C265.906 44.8727 263.122 45.588 260.029 45.588C256.781 45.588 253.92 44.8534 251.445 43.384C249.009 41.9147 247.095 39.8847 245.703 37.294C244.311 34.6647 243.615 31.61 243.615 28.13C243.615 24.65 244.311 21.6147 245.703 19.024C247.095 16.3947 249.009 14.3454 251.445 12.876C253.92 11.4067 256.781 10.672 260.029 10.672C263.122 10.672 265.906 11.4067 268.381 12.876C270.856 14.3067 272.905 16.3174 274.529 18.908C276.192 21.4987 277.294 24.5727 277.835 28.13ZM254.519 28.13C254.519 29.9087 254.886 31.494 255.621 32.886C256.356 34.2394 257.361 35.322 258.637 36.134C259.952 36.9074 261.46 37.294 263.161 37.294C264.862 37.294 266.467 36.9074 267.975 36.134C269.522 35.322 270.875 34.2394 272.035 32.886C273.195 31.494 274.065 29.9087 274.645 28.13C274.065 26.3514 273.195 24.7854 272.035 23.432C270.875 22.04 269.522 20.9574 267.975 20.184C266.467 19.372 264.862 18.966 263.161 18.966C261.46 18.966 259.952 19.372 258.637 20.184C257.361 20.9574 256.356 22.04 255.621 23.432C254.886 24.7854 254.519 26.3514 254.519 28.13ZM290.909 11.6H301.813L303.785 23.49V44.66H292.997V22.562L290.909 11.6ZM319.561 11.136V20.416C318.517 20.184 317.473 20.01 316.429 19.894C315.423 19.778 314.495 19.72 313.645 19.72C311.789 19.72 310.107 20.1067 308.599 20.88C307.129 21.6147 305.95 22.794 305.061 24.418C304.21 26.042 303.785 28.1494 303.785 30.74L301.639 28.072C301.909 25.7134 302.354 23.49 302.973 21.402C303.591 19.314 304.442 17.4774 305.525 15.892C306.607 14.268 307.941 12.992 309.527 12.064C311.151 11.136 313.103 10.672 315.385 10.672C316.042 10.672 316.738 10.7107 317.473 10.788C318.207 10.8654 318.903 10.9814 319.561 11.136ZM353.222 44.66L351.772 32.19L353.744 28.246L351.83 23.258L354.498 3.18289e-05H365.692L362.386 27.318L364.358 44.66H353.222ZM355.716 28.13C355.136 31.6487 354.034 34.7227 352.41 37.352C350.786 39.9427 348.737 41.9727 346.262 43.442C343.787 44.8727 341.003 45.588 337.91 45.588C334.662 45.588 331.801 44.8534 329.326 43.384C326.89 41.9147 324.976 39.8847 323.584 37.294C322.192 34.6647 321.496 31.61 321.496 28.13C321.496 24.65 322.192 21.6147 323.584 19.024C324.976 16.3947 326.89 14.3454 329.326 12.876C331.801 11.4067 334.662 10.672 337.91 10.672C341.003 10.672 343.787 11.4067 346.262 12.876C348.737 14.3067 350.786 16.3174 352.41 18.908C354.073 21.4987 355.175 24.5727 355.716 28.13ZM332.4 28.13C332.4 29.9087 332.767 31.494 333.502 32.886C334.237 34.2394 335.242 35.322 336.518 36.134C337.833 36.9074 339.341 37.294 341.042 37.294C342.743 37.294 344.348 36.9074 345.856 36.134C347.403 35.322 348.756 34.2394 349.916 32.886C351.076 31.494 351.946 29.9087 352.526 28.13C351.946 26.3514 351.076 24.7854 349.916 23.432C348.756 22.04 347.403 20.9574 345.856 20.184C344.348 19.372 342.743 18.966 341.042 18.966C339.341 18.966 337.833 19.372 336.518 20.184C335.242 20.9574 334.237 22.04 333.502 23.432C332.767 24.7854 332.4 26.3514 332.4 28.13ZM407.705 34.046C407.705 36.5207 406.97 38.628 405.501 40.368C404.07 42.0694 401.963 43.3647 399.179 44.254C396.395 45.1434 393.011 45.588 389.029 45.588C384.969 45.588 381.411 45.0854 378.357 44.08C375.302 43.0747 372.924 41.6634 371.223 39.846C369.521 38.0287 368.613 35.9214 368.497 33.524H379.459C379.691 34.4907 380.232 35.3414 381.083 36.076C381.972 36.8107 383.113 37.3714 384.505 37.758C385.897 38.106 387.54 38.28 389.435 38.28C391.987 38.28 393.92 38.0094 395.235 37.468C396.549 36.9267 397.207 36.1147 397.207 35.032C397.207 34.22 396.723 33.6014 395.757 33.176C394.829 32.7507 393.147 32.4414 390.711 32.248L384.679 31.784C380.889 31.4747 377.873 30.8754 375.631 29.986C373.388 29.058 371.783 27.8787 370.817 26.448C369.889 25.0174 369.425 23.4127 369.425 21.634C369.425 19.198 370.179 17.1874 371.687 15.602C373.233 13.978 375.36 12.76 378.067 11.948C380.773 11.0974 383.944 10.672 387.579 10.672C391.213 10.672 394.442 11.1554 397.265 12.122C400.126 13.0887 402.407 14.4227 404.109 16.124C405.849 17.8254 406.835 19.8167 407.067 22.098H396.105C395.95 21.3247 395.525 20.6094 394.829 19.952C394.171 19.2947 393.205 18.7727 391.929 18.386C390.691 17.9607 389.067 17.748 387.057 17.748C384.775 17.748 383.035 17.9994 381.837 18.502C380.638 19.0047 380.039 19.7394 380.039 20.706C380.039 21.4407 380.406 22.04 381.141 22.504C381.875 22.9294 383.267 23.2194 385.317 23.374L393.147 23.954C396.859 24.2634 399.759 24.8627 401.847 25.752C403.973 26.6027 405.481 27.724 406.371 29.116C407.26 30.508 407.705 32.1514 407.705 34.046Z" fill="url(#paint0_linear_2776_37)"/>
</g>
<defs>
<filter id="filter0_d_2776_37" x="0" y="0" width="408.445" height="46.3281" filterUnits="userSpaceOnUse" color-interpolation-filters="sRGB">
<feFlood flood-opacity="0" result="BackgroundImageFix"/>
<feColorMatrix in="SourceAlpha" type="matrix" values="0 0 0 0 0 0 0 0 0 0 0 0 0 0 0 0 0 0 127 0" result="hardAlpha"/>
<feOffset dx="0.370025" dy="0.370025"/>
<feGaussianBlur stdDeviation="0.185013"/>
<feComposite in2="hardAlpha" operator="out"/>
<feColorMatrix type="matrix" values="0 0 0 0 0 0 0 0 0 0 0 0 0 0 0 0 0 0 0.25 0"/>
<feBlend mode="normal" in2="BackgroundImageFix" result="effect1_dropShadow_2776_37"/>
<feBlend mode="normal" in="SourceGraphic" in2="effect1_dropShadow_2776_37" result="shape"/>
</filter>
<linearGradient id="paint0_linear_2776_37" x1="5.06562" y1="1.78402" x2="438.941" y2="72.3343" gradientUnits="userSpaceOnUse">
<stop offset="0.0729167" stop-color="#E3A455"/>
<stop offset="0.244792" stop-color="#F6DBA6"/>
<stop offset="0.434957" stop-color="#FFEBC4"/>
<stop offset="0.561926" stop-color="#F0BE79"/>
<stop offset="0.627652" stop-color="#D17941"/>
<stop offset="0.675319" stop-color="#BA7F3B"/>
<stop offset="0.770409" stop-color="#EEBC70"/>
</linearGradient>
</defs>
</svg>
