<svg width="368" height="48" viewBox="0 0 368 48" fill="none" xmlns="http://www.w3.org/2000/svg">
<g filter="url(#filter0_d_1386_10247)">
<path d="M33.5315 37L33.4795 12.872L21.5195 32.84H18.5035L6.54351 13.184V37H0.147512V0.599998H5.71151L20.1155 24.676L34.3635 0.599998H39.8755L39.9795 37H33.5315ZM62.5418 31.852C65.5578 31.852 68.0712 30.8467 70.0818 28.836L73.5138 32.84C72.3005 34.3307 70.7405 35.4573 68.8338 36.22C66.9272 36.9827 64.7778 37.364 62.3858 37.364C59.3352 37.364 56.6485 36.7573 54.3258 35.544C52.0032 34.3307 50.2005 32.6493 48.9178 30.5C47.6698 28.316 47.0458 25.8547 47.0458 23.116C47.0458 20.412 47.6525 17.9853 48.8658 15.836C50.1138 13.652 51.8125 11.9533 53.9618 10.74C56.1458 9.52667 58.6072 8.92 61.3458 8.92C63.9458 8.92 66.3032 9.492 68.4178 10.636C70.5672 11.7453 72.2658 13.3573 73.5138 15.472C74.7618 17.552 75.3858 19.996 75.3858 22.804L54.1178 26.964C54.7765 28.5587 55.8338 29.772 57.2898 30.604C58.7458 31.436 60.4965 31.852 62.5418 31.852ZM61.3458 14.12C58.9538 14.12 57.0125 14.9 55.5218 16.46C54.0658 18.02 53.3378 20.1173 53.3378 22.752V22.804L69.0418 19.788C68.5912 18.0893 67.6725 16.72 66.2858 15.68C64.9338 14.64 63.2872 14.12 61.3458 14.12ZM116.783 8.92C120.284 8.92 123.057 9.94267 125.103 11.988C127.148 13.9987 128.171 17.032 128.171 21.088V37H121.671V21.92C121.671 19.4933 121.133 17.6733 120.059 16.46C118.984 15.212 117.441 14.588 115.431 14.588C113.247 14.588 111.496 15.316 110.179 16.772C108.861 18.1933 108.203 20.2387 108.203 22.908V37H101.703V21.92C101.703 19.4933 101.165 17.6733 100.091 16.46C99.016 15.212 97.4734 14.588 95.4627 14.588C93.244 14.588 91.476 15.2987 90.1587 16.72C88.876 18.1413 88.2347 20.204 88.2347 22.908V37H81.7347V9.232H87.9227V12.768C88.9627 11.52 90.2627 10.5667 91.8227 9.908C93.3827 9.24933 95.116 8.92 97.0227 8.92C99.1027 8.92 100.94 9.31867 102.535 10.116C104.164 10.8787 105.447 12.0227 106.383 13.548C107.527 12.092 109 10.9653 110.803 10.168C112.605 9.336 114.599 8.92 116.783 8.92ZM163.212 9.232V37H157.024V33.412C155.95 34.7293 154.615 35.7173 153.02 36.376C151.46 37.0347 149.727 37.364 147.82 37.364C145.116 37.364 142.69 36.7747 140.54 35.596C138.426 34.4173 136.762 32.7533 135.548 30.604C134.37 28.4547 133.78 25.9587 133.78 23.116C133.78 20.2733 134.37 17.7947 135.548 15.68C136.762 13.5307 138.426 11.8667 140.54 10.688C142.69 9.50933 145.116 8.92 147.82 8.92C149.623 8.92 151.27 9.232 152.76 9.856C154.286 10.48 155.603 11.3987 156.712 12.612V9.232H163.212ZM148.548 31.8C150.94 31.8 152.916 31.0027 154.476 29.408C156.036 27.8133 156.816 25.716 156.816 23.116C156.816 20.516 156.036 18.4187 154.476 16.824C152.916 15.2293 150.94 14.432 148.548 14.432C146.156 14.432 144.18 15.2293 142.62 16.824C141.095 18.4187 140.332 20.516 140.332 23.116C140.332 25.716 141.095 27.8133 142.62 29.408C144.18 31.0027 146.156 31.8 148.548 31.8ZM185.965 21.66H179.205V37H172.549V0.599998H179.205V15.836H186.173L196.625 0.599998H203.801L191.373 18.228L204.269 37H196.625L185.965 21.66ZM234.814 9.232V37H228.626V33.412C227.551 34.7293 226.216 35.7173 224.622 36.376C223.062 37.0347 221.328 37.364 219.422 37.364C216.718 37.364 214.291 36.7747 212.142 35.596C210.027 34.4173 208.363 32.7533 207.15 30.604C205.971 28.4547 205.382 25.9587 205.382 23.116C205.382 20.2733 205.971 17.7947 207.15 15.68C208.363 13.5307 210.027 11.8667 212.142 10.688C214.291 9.50933 216.718 8.92 219.422 8.92C221.224 8.92 222.871 9.232 224.362 9.856C225.887 10.48 227.204 11.3987 228.314 12.612V9.232H234.814ZM220.15 31.8C222.542 31.8 224.518 31.0027 226.078 29.408C227.638 27.8133 228.418 25.716 228.418 23.116C228.418 20.516 227.638 18.4187 226.078 16.824C224.518 15.2293 222.542 14.432 220.15 14.432C217.758 14.432 215.782 15.2293 214.222 16.824C212.696 18.4187 211.934 20.516 211.934 23.116C211.934 25.716 212.696 27.8133 214.222 29.408C215.782 31.0027 217.758 31.8 220.15 31.8ZM257.15 8.92C260.028 8.92 262.541 9.50933 264.69 10.688C266.874 11.8667 268.556 13.5307 269.734 15.68C270.948 17.8293 271.554 20.3253 271.554 23.168C271.554 25.976 270.982 28.4547 269.838 30.604C268.694 32.7533 267.082 34.4173 265.002 35.596C262.957 36.7747 260.582 37.364 257.878 37.364C254.03 37.364 251.014 36.1333 248.83 33.672V47.088H242.278V23.22C242.278 20.412 242.902 17.9333 244.15 15.784C245.398 13.6 247.132 11.9187 249.35 10.74C251.604 9.52667 254.204 8.92 257.15 8.92ZM256.89 31.852C259.317 31.852 261.293 31.0547 262.818 29.46C264.344 27.8307 265.106 25.7333 265.106 23.168C265.106 20.6027 264.344 18.5053 262.818 16.876C261.293 15.2467 259.317 14.432 256.89 14.432C254.429 14.432 252.453 15.2293 250.962 16.824C249.472 18.4187 248.726 20.516 248.726 23.116C248.726 25.716 249.472 27.8307 250.962 29.46C252.488 31.0547 254.464 31.852 256.89 31.852ZM313.103 8.92C316.604 8.92 319.378 9.94267 321.423 11.988C323.468 13.9987 324.491 17.032 324.491 21.088V37H317.991V21.92C317.991 19.4933 317.454 17.6733 316.379 16.46C315.304 15.212 313.762 14.588 311.751 14.588C309.567 14.588 307.816 15.316 306.499 16.772C305.182 18.1933 304.523 20.2387 304.523 22.908V37H298.023V21.92C298.023 19.4933 297.486 17.6733 296.411 16.46C295.336 15.212 293.794 14.588 291.783 14.588C289.564 14.588 287.796 15.2987 286.479 16.72C285.196 18.1413 284.555 20.204 284.555 22.908V37H278.055V9.232H284.243V12.768C285.283 11.52 286.583 10.5667 288.143 9.908C289.703 9.24933 291.436 8.92 293.343 8.92C295.423 8.92 297.26 9.31867 298.855 10.116C300.484 10.8787 301.767 12.0227 302.703 13.548C303.847 12.092 305.32 10.9653 307.123 10.168C308.926 9.336 310.919 8.92 313.103 8.92ZM344.557 37.728C340.362 37.728 337.19 36.7573 335.041 34.816C332.926 32.8747 331.869 30.0667 331.869 26.392V9.232H338.317V19.216C339.114 18.5573 340.206 18.0027 341.593 17.552C342.979 17.1013 344.557 16.876 346.325 16.876C349.722 16.876 352.374 17.7427 354.281 19.476C356.187 21.2093 357.141 23.6707 357.141 26.86C357.141 30.2573 355.997 32.9267 353.709 34.868C351.455 36.7747 348.405 37.728 344.557 37.728ZM360.625 9.232H367.125V37H360.625V9.232ZM344.557 32.944C346.463 32.944 347.937 32.3893 348.977 31.28C350.017 30.136 350.537 28.6973 350.537 26.964C350.537 25.3 349.999 23.9653 348.925 22.96C347.885 21.9547 346.394 21.452 344.453 21.452C343.031 21.452 341.783 21.7293 340.709 22.284C339.669 22.8387 338.871 23.6187 338.317 24.624V26.964C338.317 28.836 338.854 30.3093 339.929 31.384C341.003 32.424 342.546 32.944 344.557 32.944Z" fill="url(#paint0_linear_1386_10247)"/>
</g>
<defs>
<filter id="filter0_d_1386_10247" x="0.147522" y="0.599991" width="367.717" height="47.2281" filterUnits="userSpaceOnUse" color-interpolation-filters="sRGB">
<feFlood flood-opacity="0" result="BackgroundImageFix"/>
<feColorMatrix in="SourceAlpha" type="matrix" values="0 0 0 0 0 0 0 0 0 0 0 0 0 0 0 0 0 0 127 0" result="hardAlpha"/>
<feOffset dx="0.370025" dy="0.370025"/>
<feGaussianBlur stdDeviation="0.185013"/>
<feComposite in2="hardAlpha" operator="out"/>
<feColorMatrix type="matrix" values="0 0 0 0 0 0 0 0 0 0 0 0 0 0 0 0 0 0 0.25 0"/>
<feBlend mode="normal" in2="BackgroundImageFix" result="effect1_dropShadow_1386_10247"/>
<feBlend mode="normal" in="SourceGraphic" in2="effect1_dropShadow_1386_10247" result="shape"/>
</filter>
<linearGradient id="paint0_linear_1386_10247" x1="6.12218" y1="-0.467446" x2="395.343" y2="63.5561" gradientUnits="userSpaceOnUse">
<stop offset="0.0729167" stop-color="#E3A455"/>
<stop offset="0.244792" stop-color="#F6DBA6"/>
<stop offset="0.434957" stop-color="#FFEBC4"/>
<stop offset="0.561926" stop-color="#F0BE79"/>
<stop offset="0.627652" stop-color="#D17941"/>
<stop offset="0.675319" stop-color="#BA7F3B"/>
<stop offset="0.770409" stop-color="#EEBC70"/>
</linearGradient>
</defs>
</svg>
