<svg width="424" height="54" viewBox="0 0 424 54" fill="none" xmlns="http://www.w3.org/2000/svg">
<g filter="url(#filter0_d_2776_39)">
<path d="M62.3501 -3.45707e-06V43.5H51.9101V3.828L54.4621 4.002L36.7721 43.5H25.5781L7.88811 4.118L10.4401 3.886V43.5H0.000113651V-3.45707e-06H16.8781L33.4081 38.048H29.0001L45.4721 -3.45707e-06H62.3501ZM88.5031 44.428C84.5591 44.428 81.0211 43.6933 77.8891 42.224C74.7958 40.7547 72.3598 38.7053 70.5811 36.076C68.8025 33.4467 67.9131 30.3727 67.9131 26.854C67.9131 23.4127 68.7638 20.3967 70.4651 17.806C72.1665 15.2153 74.5058 13.1853 77.4831 11.716C80.4991 10.2467 83.9018 9.512 87.6911 9.512C91.5578 9.512 94.8831 10.3627 97.6671 12.064C100.451 13.7653 102.597 16.1627 104.105 19.256C105.613 22.3493 106.367 25.984 106.367 30.16H76.5551V23.374H100.451L96.5651 25.81C96.4491 23.9927 96.0045 22.4653 95.2311 21.228C94.4965 19.952 93.5105 18.9853 92.2731 18.328C91.0358 17.632 89.5665 17.284 87.8651 17.284C86.0091 17.284 84.4045 17.6513 83.0511 18.386C81.6978 19.1207 80.6345 20.1453 79.8611 21.46C79.1265 22.7747 78.7591 24.302 78.7591 26.042C78.7591 28.246 79.2425 30.1213 80.2091 31.668C81.2145 33.2147 82.6451 34.394 84.5011 35.206C86.3958 36.018 88.6965 36.424 91.4031 36.424C93.8778 36.424 96.3525 36.0953 98.8271 35.438C101.302 34.742 103.525 33.7753 105.497 32.538V39.556C103.254 41.1027 100.683 42.3013 97.7831 43.152C94.9218 44.0027 91.8285 44.428 88.5031 44.428ZM120.582 14.152H131.37V43.5H120.582V14.152ZM107.764 10.44H144.246V18.618H107.764V10.44ZM177.462 43.5L176.012 31.494L177.578 26.97L176.012 22.504L177.462 10.44H188.656L186.626 26.97L188.656 43.5H177.462ZM180.13 26.97C179.55 30.4887 178.448 33.5627 176.824 36.192C175.2 38.7827 173.151 40.8127 170.676 42.282C168.201 43.7127 165.417 44.428 162.324 44.428C159.076 44.428 156.215 43.6933 153.74 42.224C151.304 40.7547 149.39 38.7247 147.998 36.134C146.606 33.5047 145.91 30.45 145.91 26.97C145.91 23.49 146.606 20.4547 147.998 17.864C149.39 15.2347 151.304 13.1853 153.74 11.716C156.215 10.2467 159.076 9.512 162.324 9.512C165.417 9.512 168.201 10.2467 170.676 11.716C173.151 13.1467 175.2 15.1573 176.824 17.748C178.487 20.3387 179.589 23.4127 180.13 26.97ZM156.814 26.97C156.814 28.7487 157.181 30.334 157.916 31.726C158.651 33.0793 159.656 34.162 160.932 34.974C162.247 35.7473 163.755 36.134 165.456 36.134C167.157 36.134 168.762 35.7473 170.27 34.974C171.817 34.162 173.17 33.0793 174.33 31.726C175.49 30.334 176.36 28.7487 176.94 26.97C176.36 25.1913 175.49 23.6253 174.33 22.272C173.17 20.88 171.817 19.7973 170.27 19.024C168.762 18.212 167.157 17.806 165.456 17.806C163.755 17.806 162.247 18.212 160.932 19.024C159.656 19.7973 158.651 20.88 157.916 22.272C157.181 23.6253 156.814 25.1913 156.814 26.97ZM195.127 43.5V-3.45707e-06H206.031V34.742L203.073 32.48L228.825 -3.45707e-06H240.425L204.987 43.5H195.127ZM215.949 22.446L223.837 15.66L241.005 43.5H228.593L215.949 22.446ZM271.882 43.5L270.432 31.494L271.998 26.97L270.432 22.504L271.882 10.44H283.076L281.046 26.97L283.076 43.5H271.882ZM274.55 26.97C273.97 30.4887 272.868 33.5627 271.244 36.192C269.62 38.7827 267.571 40.8127 265.096 42.282C262.621 43.7127 259.837 44.428 256.744 44.428C253.496 44.428 250.635 43.6933 248.16 42.224C245.724 40.7547 243.81 38.7247 242.418 36.134C241.026 33.5047 240.33 30.45 240.33 26.97C240.33 23.49 241.026 20.4547 242.418 17.864C243.81 15.2347 245.724 13.1853 248.16 11.716C250.635 10.2467 253.496 9.512 256.744 9.512C259.837 9.512 262.621 10.2467 265.096 11.716C267.571 13.1467 269.62 15.1573 271.244 17.748C272.907 20.3387 274.009 23.4127 274.55 26.97ZM251.234 26.97C251.234 28.7487 251.601 30.334 252.336 31.726C253.071 33.0793 254.076 34.162 255.352 34.974C256.667 35.7473 258.175 36.134 259.876 36.134C261.577 36.134 263.182 35.7473 264.69 34.974C266.237 34.162 267.59 33.0793 268.75 31.726C269.91 30.334 270.78 28.7487 271.36 26.97C270.78 25.1913 269.91 23.6253 268.75 22.272C267.59 20.88 266.237 19.7973 264.69 19.024C263.182 18.212 261.577 17.806 259.876 17.806C258.175 17.806 256.667 18.212 255.352 19.024C254.076 19.7973 253.071 20.88 252.336 22.272C251.601 23.6253 251.234 25.1913 251.234 26.97ZM289.189 10.44H299.919V20.416L299.513 21.808V30.392L299.919 32.944V53.07H289.189V10.44ZM296.381 26.97C296.961 23.4127 298.063 20.3387 299.687 17.748C301.311 15.1573 303.361 13.1467 305.835 11.716C308.349 10.2467 311.133 9.512 314.187 9.512C317.435 9.512 320.277 10.2467 322.713 11.716C325.188 13.1853 327.121 15.2347 328.513 17.864C329.905 20.4547 330.601 23.49 330.601 26.97C330.601 30.45 329.905 33.5047 328.513 36.134C327.121 38.7247 325.188 40.7547 322.713 42.224C320.277 43.6933 317.435 44.428 314.187 44.428C311.094 44.428 308.31 43.7127 305.835 42.282C303.399 40.8127 301.35 38.7827 299.687 36.192C298.063 33.5627 296.961 30.4887 296.381 26.97ZM319.697 26.97C319.697 25.1913 319.33 23.6253 318.595 22.272C317.861 20.88 316.836 19.7973 315.521 19.024C314.245 18.212 312.757 17.806 311.055 17.806C309.354 17.806 307.73 18.212 306.183 19.024C304.675 19.7973 303.341 20.88 302.181 22.272C301.06 23.6253 300.19 25.1913 299.571 26.97C300.19 28.7487 301.06 30.334 302.181 31.726C303.341 33.0793 304.675 34.162 306.183 34.974C307.73 35.7473 309.354 36.134 311.055 36.134C312.757 36.134 314.245 35.7473 315.521 34.974C316.836 34.162 317.861 33.0793 318.595 31.726C319.33 30.334 319.697 28.7487 319.697 26.97ZM345.048 14.152H355.836V43.5H345.048V14.152ZM332.23 10.44H368.712V18.618H332.23V10.44ZM411.704 10.44H422.492V43.5H411.704V10.44ZM373.018 43.5V10.44H383.69V40.774L380.326 35.844H392.622C394.246 35.844 395.502 35.4573 396.392 34.684C397.281 33.9107 397.726 32.8087 397.726 31.378C397.726 29.9473 397.281 28.8453 396.392 28.072C395.502 27.26 394.246 26.854 392.622 26.854H380.326V19.546H394.362C397.223 19.546 399.717 20.0487 401.844 21.054C403.97 22.0593 405.614 23.4513 406.774 25.23C407.972 27.0087 408.572 29.0967 408.572 31.494C408.572 33.8913 407.972 35.9987 406.774 37.816C405.614 39.6333 403.97 41.0447 401.844 42.05C399.756 43.0167 397.3 43.5 394.478 43.5H373.018Z" fill="url(#paint0_linear_2776_39)"/>
</g>
<defs>
<filter id="filter0_d_2776_39" x="0" y="0" width="423.232" height="53.81" filterUnits="userSpaceOnUse" color-interpolation-filters="sRGB">
<feFlood flood-opacity="0" result="BackgroundImageFix"/>
<feColorMatrix in="SourceAlpha" type="matrix" values="0 0 0 0 0 0 0 0 0 0 0 0 0 0 0 0 0 0 127 0" result="hardAlpha"/>
<feOffset dx="0.370025" dy="0.370025"/>
<feGaussianBlur stdDeviation="0.185013"/>
<feComposite in2="hardAlpha" operator="out"/>
<feColorMatrix type="matrix" values="0 0 0 0 0 0 0 0 0 0 0 0 0 0 0 0 0 0 0.25 0"/>
<feBlend mode="normal" in2="BackgroundImageFix" result="effect1_dropShadow_2776_39"/>
<feBlend mode="normal" in="SourceGraphic" in2="effect1_dropShadow_2776_39" result="shape"/>
</filter>
<linearGradient id="paint0_linear_2776_39" x1="8.48195" y1="-0.177081" x2="453.446" y2="73.04" gradientUnits="userSpaceOnUse">
<stop offset="0.0729167" stop-color="#E3A455"/>
<stop offset="0.244792" stop-color="#F6DBA6"/>
<stop offset="0.434957" stop-color="#FFEBC4"/>
<stop offset="0.561926" stop-color="#F0BE79"/>
<stop offset="0.627652" stop-color="#D17941"/>
<stop offset="0.675319" stop-color="#BA7F3B"/>
<stop offset="0.770409" stop-color="#EEBC70"/>
</linearGradient>
</defs>
</svg>
