<svg width="27" height="25" viewBox="0 0 27 25" fill="none" xmlns="http://www.w3.org/2000/svg">
<path d="M9.38235 0.393817C9.50432 0.395817 9.60165 0.496187 9.59979 0.618167V0.953357H9.93542C10.2302 0.953357 10.2302 1.3955 9.93542 1.3955H9.59979V1.73046C9.60479 1.85595 9.50459 1.96044 9.37901 1.96044C9.2534 1.96044 9.153 1.85595 9.1581 1.73046V1.39527H8.82236C8.5263 1.39627 8.5263 0.951833 8.82236 0.953143H9.1581V0.618167C9.1561 0.493697 9.25785 0.392237 9.38235 0.393817ZM6.01536 2.46698C6.59679 2.46698 7.12745 2.68124 7.53106 3.38028C7.94039 4.07401 8.94916 4.45098 9.81283 3.95233C11.227 3.18032 13.0509 3.6579 13.8813 5.01241C14.2018 5.56768 14.7309 6.02354 15.3277 6.22624C15.9245 6.42896 16.612 6.35445 17.1309 5.83548C17.7384 5.22792 18.3243 4.99298 19.1253 4.99298C20.6815 4.98698 21.9437 6.27622 21.9437 7.87003C21.9437 8.49436 22.1034 9.08296 22.4894 9.519C22.8755 9.95503 23.4804 10.2157 24.2889 10.2157C24.8225 10.2157 25.257 10.3953 25.6348 10.7732C26.38 11.5185 26.38 12.7203 25.6348 13.4656C25.0978 14.0027 24.903 14.5637 24.9558 15.1126C25.0086 15.6615 25.2801 16.1831 25.5999 16.7372C25.9211 17.2936 25.9196 17.8877 25.701 18.4881C25.4824 19.0885 25.0374 19.683 24.4888 20.171C23.9402 20.659 23.289 21.0401 22.6767 21.2298C22.0643 21.4196 21.5038 21.4141 21.1063 21.1846C20.5443 20.8602 19.8471 20.7654 19.2293 20.9044C18.6114 21.0434 18.0561 21.4409 17.8804 22.0966C17.6952 22.7882 17.4827 22.9702 16.9937 23.2525C16.5397 23.5147 15.9377 23.5972 15.4344 23.4838C14.9311 23.3704 14.5432 23.0855 14.4156 22.6089C14.2628 22.0388 14.0978 21.4794 13.7511 21.0426C13.4045 20.6059 12.8631 20.3203 12.0781 20.3203C11.0753 20.3203 10.1627 19.6111 9.55328 18.5701C8.98717 17.6032 8.70015 16.3657 8.84795 15.241C9.19667 15.3254 9.56065 15.3704 9.9351 15.3704C12.4833 15.3704 14.5538 13.2997 14.5538 10.7512C14.5538 8.20266 12.4833 6.13205 9.9351 6.13205C8.20701 6.13205 6.69971 7.08492 5.90787 8.49272C5.83117 8.25944 5.71313 8.04199 5.57085 7.84479C5.23344 7.37717 4.76521 7.00021 4.35821 6.69657C3.62397 6.14505 3.38911 5.52548 3.4311 4.91539C3.4731 4.30532 3.81554 3.69331 4.30684 3.23503C4.79815 2.77675 5.43208 2.48008 6.01536 2.46698ZM9.9351 6.57418C12.0371 6.53918 14.1121 8.30733 14.1121 10.7512C14.1121 13.0608 12.2444 14.9286 9.9351 14.9286C7.62579 14.9286 5.75841 13.0608 5.75841 10.7512C5.75841 8.24746 7.83306 6.60918 9.9351 6.57418ZM1.0442 6.85195C1.16619 6.85395 1.26381 6.9539 1.26221 7.07588V7.41149H1.59771C1.89341 7.41064 1.89341 7.85457 1.59771 7.85363H1.26221V8.1886C1.26221 8.48395 0.819342 8.48395 0.819952 8.1886V7.85341H0.484655C0.191206 7.85241 0.191206 7.41257 0.484655 7.41127H0.819952V7.07631C0.817951 6.95167 0.919556 6.85012 1.0442 6.85195ZM4.2886 7.19976C4.62645 7.46347 4.97044 7.76809 5.21235 8.10334C5.4969 8.49757 5.64149 8.9115 5.51929 9.39618C5.3877 9.82482 5.3167 10.2798 5.3167 10.7512C5.3167 12.7687 6.61412 14.4866 8.41897 15.1149C8.33297 15.6983 8.35397 16.3018 8.46377 16.8881C6.88817 17.7646 3.41355 18.7027 1.03979 18.066C0.742636 18.0049 0.668623 17.6756 0.691862 17.3758C0.719763 17.0035 0.912384 16.5589 1.14985 16.3102C1.17546 16.2833 1.19385 16.2505 1.20345 16.2147L1.45933 15.2579C1.98708 15.429 2.55797 15.4488 3.09663 15.321C3.38836 15.256 3.2845 14.8178 2.99464 14.8907C2.527 15.0017 2.02809 14.9816 1.57384 14.8299L1.79764 13.9938C1.82304 13.8997 1.78374 13.8001 1.70094 13.7486L0.616491 13.0745C0.581692 13.0303 0.553297 12.9706 0.553297 12.8974C0.553297 12.8186 0.582298 12.7513 0.621298 12.7069L2.88213 10.2226C2.90593 10.1966 2.92313 10.1652 2.93233 10.1312C3.16306 9.2691 3.80107 8.02464 4.2886 7.19976ZM9.92603 8.38069C9.85083 8.38369 9.78246 8.42509 9.7445 8.49001C9.7445 8.49001 9.4912 8.92328 9.23839 9.49492C9.09646 9.81585 8.95197 10.1792 8.85248 10.5444C8.09768 9.63444 6.9931 9.45014 6.9931 9.45014C6.82497 9.40504 6.61749 9.64228 6.80132 9.82611C7.21451 10.2281 7.26682 10.9419 7.54571 11.6514C7.68516 12.0062 7.89474 12.3582 8.25915 12.625C8.73215 12.9617 9.36373 13.1096 9.9351 13.1216C10.5064 13.1335 11.0878 12.9873 11.611 12.625C11.9755 12.3582 12.1854 12.0062 12.3248 11.6514C12.6037 10.9419 12.656 10.2281 13.0692 9.82611C13.2337 9.66164 13.0752 9.39713 12.8774 9.45014C12.8774 9.45014 11.7728 9.63444 11.018 10.5444C10.9185 10.1792 10.7741 9.81585 10.6321 9.49492C10.3793 8.92328 10.1259 8.49001 10.1259 8.49001C10.0846 8.41941 10.0077 8.37733 9.92603 8.38069ZM17.3212 8.7788C17.1979 8.7768 17.0961 8.8784 17.0981 9.00305V9.33802H16.7624C16.4677 9.33802 16.4677 9.78015 16.7624 9.78015H17.0981V10.1153C17.0961 10.4117 17.5424 10.4117 17.5403 10.1153V9.78037H17.8755C18.1689 9.77937 18.1689 9.33948 17.8755 9.33823H17.5403V9.00305C17.5423 8.88094 17.4446 8.78047 17.3212 8.7788ZM9.9351 9.09197C10.0196 9.24813 10.1397 9.46472 10.2279 9.67449C10.47 10.2219 10.7039 10.9072 10.7039 11.3846C10.7039 11.8073 10.5916 12.1427 10.438 12.3624C10.349 12.4865 10.1591 12.6802 9.9351 12.6802C9.71112 12.6802 9.57657 12.5331 9.43255 12.3619C9.27887 12.1422 9.16663 11.8069 9.16663 11.3842C9.16663 10.9068 9.40054 10.2215 9.64265 9.67408C9.78919 9.3426 9.84242 9.26315 9.9351 9.09197ZM12.3704 10.0917C12.1579 10.5526 12.0809 11.0644 11.9136 11.4899C11.7922 11.7988 11.6318 12.0621 11.35 12.2685C11.2201 12.3636 11.0612 12.4477 10.8643 12.5153C11.0952 12.121 11.1709 11.6553 11.1339 11.1479C11.4832 10.5459 11.9674 10.2599 12.3704 10.0917ZM7.50007 10.0917C7.90312 10.2599 8.38732 10.546 8.73659 11.148C8.69179 11.6137 8.74558 12.0644 9.00626 12.5153C8.80928 12.4477 8.65043 12.3636 8.52054 12.2685C8.23866 12.0621 8.0783 11.7988 7.95688 11.4899C7.78965 11.0644 7.71265 10.5526 7.50007 10.0917ZM15.7899 15.1433C15.6665 15.1413 15.5648 15.2428 15.5669 15.3671V15.7024H15.2316C14.9382 15.7034 14.9382 16.1432 15.2316 16.1445H15.5669V16.4798C15.5669 16.7746 16.0091 16.7746 16.0091 16.4798V16.1445H16.3448C16.6382 16.1435 16.6382 15.7036 16.3448 15.7024H16.0091V15.3671C16.0111 15.2451 15.9133 15.1449 15.7899 15.1433ZM8.56683 17.3362C8.70542 17.8525 8.91086 18.3476 9.17203 18.7936C9.62918 19.5746 10.2635 20.215 11.01 20.5371C10.6901 21.642 10.6357 22.9593 10.6415 24.0646H7.20473C7.21373 22.1256 7.00024 19.9606 5.50449 18.4204C6.70408 18.1537 7.79773 17.7471 8.56683 17.3362Z" fill="white"/>
</svg>
