<svg width="64" height="64" viewBox="0 0 64 64" fill="none" xmlns="http://www.w3.org/2000/svg">
<path d="M29.9934 0C31.316 0 32.641 0 33.9635 0C34.3414 0.152268 34.7384 0.226022 35.1378 0.275985C35.9414 0.37829 36.7474 0.452044 37.5486 0.568624C39.0792 0.792268 40.574 1.16342 42.0425 1.64402C43.6975 2.18409 45.2592 2.93353 46.7898 3.74959C48.2726 4.53948 49.6957 5.42454 51.0589 6.40952C52.2715 7.28506 53.4218 8.23435 54.5028 9.26691C55.5719 10.29 56.5644 11.382 57.4709 12.5502C58.5447 13.9325 59.487 15.4004 60.293 16.9517C60.9602 18.2341 61.5342 19.5545 62.0149 20.9154C62.522 22.3524 62.9405 23.8109 63.2347 25.305C63.4236 26.2662 63.5743 27.2345 63.7226 28.2052C63.8493 29.026 63.9354 29.8516 63.9546 30.6819C63.9593 30.8604 63.9857 31.0388 64 31.2172C64 32.1999 64 33.1848 64 34.1674C63.988 34.2436 63.9689 34.3173 63.9665 34.3935C63.957 34.6694 63.9689 34.9502 63.9402 35.2238C63.8589 35.9685 63.7752 36.7155 63.6676 37.4578C63.4404 39.0115 63.0673 40.5317 62.5818 42.0235C62.0747 43.5866 61.4362 45.0926 60.6756 46.5511C60.0371 47.7764 59.322 48.9541 58.528 50.0865C57.588 51.426 56.574 52.706 55.4428 53.8885C54.6966 54.6688 53.9336 55.4326 53.1444 56.1701C52.3312 56.9291 51.4559 57.6143 50.5543 58.2662C49.3274 59.1512 48.0454 59.9459 46.6966 60.6335C45.5055 61.2425 44.281 61.7731 43.0182 62.2156C41.7555 62.6581 40.4735 63.0269 39.1605 63.2862C38.2565 63.4647 37.3477 63.6193 36.4365 63.743C35.707 63.843 34.9656 63.8787 34.2314 63.9453C34.0448 63.9619 33.8607 63.981 33.6741 64C32.5262 64 31.3782 64 30.2302 64C30.1943 63.9881 30.1584 63.9643 30.1226 63.9619C29.8451 63.9429 29.5677 63.9358 29.2903 63.912C28.6493 63.8525 28.0084 63.7978 27.3722 63.7193C26.0281 63.5575 24.7055 63.2886 23.3997 62.9413C21.5868 62.4607 19.8386 61.8135 18.1501 61.0022C16.7223 60.3146 15.3567 59.52 14.0508 58.6183C12.049 57.236 10.2218 55.6538 8.55247 53.8909C7.84215 53.1414 7.17011 52.361 6.53632 51.5474C5.46248 50.1674 4.51061 48.7066 3.69268 47.1601C2.81016 45.4876 2.08789 43.7484 1.53303 41.9426C1.19821 40.8529 0.908819 39.749 0.710314 38.626C0.559642 37.779 0.413752 36.9297 0.303737 36.0755C0.208072 35.3475 0.162631 34.6147 0.105232 33.8819C0.0741407 33.4894 0.0621827 33.0944 0.040658 32.6995C0.0382664 32.6638 0.0143498 32.6305 0 32.5948C0 32.0714 0 31.548 0 31.0245C0.0143498 30.9984 0.0358746 30.9722 0.0382662 30.9436C0.0573992 30.701 0.0693574 30.4559 0.0860988 30.2132C0.13154 29.5828 0.172198 28.9523 0.231988 28.3242C0.327654 27.2916 0.502242 26.2733 0.715097 25.2574C1.33453 22.3262 2.3438 19.5378 3.76921 16.897C4.50822 15.5265 5.34768 14.2204 6.28759 12.9784C7.4284 11.47 8.69596 10.0735 10.0783 8.77918C10.8891 8.01784 11.7309 7.29457 12.6135 6.61651C14.4024 5.23896 16.3157 4.06602 18.3653 3.11435C20.2595 2.23405 22.2278 1.56312 24.2631 1.08967C25.9444 0.69948 27.6472 0.43777 29.3453 0.142751C29.5653 0.107063 29.7782 0.0475836 29.9934 0ZM23.4451 3.269C23.3471 3.23331 23.2777 3.22141 23.2179 3.1881C23.0433 3.09056 22.8735 3.11673 22.6942 3.18335C22.2541 3.34513 21.8069 3.48788 21.3692 3.6568C19.9988 4.18022 18.6978 4.85115 17.4206 5.56253C14.675 7.09234 12.1638 8.92907 9.98027 11.1964C9.51869 11.677 9.06667 12.1671 8.63378 12.6739C7.03857 14.5439 5.73513 16.6019 4.68999 18.8241C3.8864 20.5371 3.2574 22.3096 2.78147 24.1392C2.41315 25.5572 2.14051 26.9918 1.94918 28.4455C1.80807 29.5114 1.69327 30.5796 1.67175 31.655C1.64783 32.9683 1.63587 34.284 1.81046 35.5902C1.92048 36.4134 2.02332 37.2366 2.17399 38.0526C2.42033 39.3778 2.78386 40.6721 3.23109 41.945C3.78595 43.5248 4.46996 45.0498 5.28311 46.5154C6.12257 48.0309 7.07205 49.4727 8.13393 50.8455C8.89208 51.8257 9.70045 52.7607 10.5758 53.641C11.035 54.1026 11.5133 54.5451 11.994 54.9829C12.9172 55.8251 13.9073 56.5817 14.9405 57.2836C16.2655 58.1829 17.6574 58.9633 19.1139 59.6342C20.3719 60.2147 21.6658 60.7025 22.9883 61.1093C24.464 61.5613 25.9659 61.9087 27.4894 62.1656C28.525 62.3417 29.5629 62.4749 30.6129 62.5154C31.5193 62.5511 32.4257 62.5225 33.3274 62.3917C34.1716 62.2703 34.9991 62.0776 35.8003 61.785C37.0822 61.3187 38.2517 60.6501 39.3495 59.8507C40.3253 59.1417 41.2078 58.3328 41.9803 57.412C43.1928 55.9655 44.0921 54.35 44.6493 52.5442C44.9865 51.4498 45.1851 50.3292 45.2401 49.1896C45.2664 48.6376 45.2353 48.0833 45.2137 47.5289C45.1731 46.5035 44.9794 45.5042 44.6996 44.5193C44.3336 43.2345 43.8218 42.0092 43.1856 40.8339C42.351 39.2946 41.3058 37.9194 40.0072 36.7322C39.0266 35.8376 37.9432 35.0929 36.7665 34.4839C34.5925 33.3585 32.2607 32.7732 29.838 32.4901C29.1683 32.4116 28.4963 32.3283 27.8362 32.1999C26.2194 31.8834 24.672 31.3624 23.206 30.6034C21.5773 29.7612 20.0849 28.7334 18.8245 27.3963C17.93 26.447 17.1886 25.393 16.5883 24.2415C15.5336 22.2168 14.9549 20.0613 14.8448 17.7844C14.7922 16.7066 14.8425 15.6336 15.017 14.5677C15.2706 13.0236 15.7513 11.5581 16.4855 10.1734C17.3824 8.47703 18.5758 7.01621 20.0108 5.7481C21.0129 4.86305 22.1058 4.09695 23.2562 3.40937C23.3088 3.3713 23.3614 3.32848 23.4451 3.269ZM34.6882 16.9707C34.6691 16.7566 34.6667 16.502 34.6188 16.2546C34.3079 14.6415 33.435 13.4376 31.9378 12.7215C31.0433 12.2932 30.1034 12.2219 29.154 12.5454C27.9558 12.9523 27.0709 13.7398 26.4395 14.8175C26.0377 15.5028 25.8272 16.2451 25.875 17.0397C25.9372 18.0723 26.3079 18.9954 26.9632 19.7996C27.5253 20.4919 28.2284 20.9725 29.1037 21.1819C29.6012 21.3008 30.1034 21.327 30.6152 21.2818C31.2921 21.2247 31.9306 21.051 32.5118 20.7036C33.9157 19.8685 34.6332 18.6314 34.6882 16.9707Z" fill="white"/>
<path d="M29.1994 52.4467C28.159 52.4276 27.2621 52.0422 26.4944 51.3641C25.7482 50.7051 25.246 49.8867 25.0475 48.9088C24.7414 47.3957 25.1049 46.0467 26.1668 44.9189C26.8938 44.1481 27.8146 43.727 28.8813 43.6247C30.1704 43.501 31.3064 43.8602 32.2798 44.6977C33.1766 45.4709 33.6837 46.4535 33.7865 47.6431C33.8798 48.7137 33.5162 49.6345 32.8896 50.4672C32.2272 51.3451 31.3733 51.9732 30.3091 52.2944C29.9479 52.4039 29.5796 52.4633 29.1994 52.4467Z" fill="white"/>
</svg>
